<svg width="180" height="60" viewBox="0 0 180 60" fill="none" xmlns="http://www.w3.org/2000/svg">
<path d="M5.7749 12.0011V47.7315H39.163V12.0011H5.7749Z" fill="#FFE901"/>
<path fill-rule="evenodd" clip-rule="evenodd" d="M47.1729 29.9114V12.0011H53.876C53.9735 12.0011 54.0714 12.0008 54.1689 12.0005C55.6786 11.9964 57.1696 11.9924 58.4709 12.9683C61.6239 15.3323 61.5946 21.4209 58.2181 23.5751C56.6199 24.5944 54.5862 24.5163 52.6955 24.4437C52.2196 24.4254 51.7527 24.4075 51.3042 24.4075V29.9114H47.1729ZM67.1131 29.9114V12.0011H71.2445V26.1218H79.2121V29.9114H67.1131ZM85.9572 29.9114V12.0011H88.9925L90.1587 12.0475L90.8064 12.9936L92.2107 15.159L95.399 20.0765L97.1709 22.7834V12.0011H101.302V29.9114H98.1402L96.8041 29.8844L96.2679 29.1445L95.0454 27.2497L91.9974 22.5127L90.1306 19.5803H90.0886V29.9114H85.9572ZM51.3042 20.5728V15.7907H53.8756C53.9566 15.7907 54.0384 15.7894 54.1201 15.7882C54.581 15.7812 55.0524 15.7741 55.4776 15.9855C56.939 16.7128 56.9525 19.4409 55.6044 20.298C55.1551 20.5835 54.6541 20.5788 54.1527 20.574C54.0886 20.5734 54.0241 20.5728 53.96 20.5728H51.3042Z" fill="#4FC3F7"/>
<path d="M15.0916 34.6033L17.5788 33.4493L24.0288 30.4077C23.4832 34.929 22.0871 39.3304 21.5416 43.8518H21.5837L23.4302 38.889L26.4572 30.7235L27.8571 26.979L28.4552 25.3098L22.3425 27.9445L19.6445 29.0994C20.6538 26.4665 21.7257 23.8526 22.8004 21.2495C23.3935 19.8126 24.1898 18.2977 24.5768 16.7832H21.4994C21.2195 16.7832 20.5735 16.6546 20.3405 16.8297C20.1092 17.0034 20.0081 17.7613 19.9278 18.0464C19.6136 19.1625 19.2583 20.266 18.9521 21.3849C18.1625 24.2704 17.2812 27.1378 16.4261 30.0017L15.583 32.8439C15.4123 33.4155 15.1733 34.0087 15.0916 34.6033Z" fill="#DF0813"/>
<path d="M15.0916 24.0015V24.0466H15.3445L15.0916 24.0015Z" fill="#ACD049"/>
<path d="M12.52 27.3399C13.5564 26.8757 14.5827 26.1891 15.766 26.31C16.3511 26.37 16.781 26.6759 17.3258 26.8437L18.0003 24.6331C16.5687 23.9952 15.2861 23.8314 13.7847 24.3624C13.4612 24.477 12.7558 24.6435 12.5633 24.9665C12.4607 25.1388 12.52 25.474 12.52 25.6707V27.3399Z" fill="#047DAF"/>
<path d="M16.0613 24.0015V24.0466H16.2721L16.0613 24.0015ZM22.0054 24.0015V24.0466H22.2583L22.0054 24.0015Z" fill="#ACD049"/>
<path d="M20.53 26.8888C21.4402 26.6082 22.1595 26.2545 23.1437 26.3551C23.5052 26.3921 23.8603 26.4841 24.1976 26.6272C24.388 26.7079 24.6186 26.8924 24.83 26.8568C25.1529 26.8022 25.4965 26.5856 25.7996 26.4557C26.6845 26.0768 27.5783 25.5787 28.4977 25.3098L27.8653 26.9791C28.2072 26.8081 28.5079 26.5536 28.877 26.4449C30.218 26.0497 31.2758 26.7318 32.4182 27.34V25.7158C32.4182 25.4993 32.467 25.2007 32.3928 24.9958C32.2297 24.5456 31.378 24.3042 30.9849 24.1991C30.1327 23.9708 29.1772 23.8946 28.329 24.1833C27.5272 24.4558 27.0461 25.0355 26.1369 24.9412C25.0541 24.8289 24.0994 24.1842 23.0173 24.034C22.6523 23.983 22.0583 23.9271 21.7194 24.1147C21.513 24.2293 21.4295 24.6439 21.3428 24.8587C21.0705 25.5345 20.7909 26.2081 20.53 26.8888Z" fill="#047DAF"/>
<path d="M22.9327 24.0015V24.0466H23.1435L22.9327 24.0015ZM28.919 24.0015V24.0466H29.1298L28.919 24.0015ZM29.9307 24.0015V24.0466H30.1837L29.9307 24.0015ZM14.7965 24.0466V24.0917H14.9651L14.7965 24.0466ZM16.4406 24.0466V24.0917H16.5671L16.4406 24.0466ZM21.7102 24.0466V24.0917H21.8788L21.7102 24.0466ZM23.27 24.0466V24.0917H23.3964L23.27 24.0466ZM28.666 24.0466V24.0917H28.7925L28.666 24.0466ZM30.3523 24.0466V24.0917H30.5209L30.3523 24.0466ZM14.5857 24.0917V24.1368H14.7122L14.5857 24.0917ZM16.6514 24.0917V24.1368H16.7778L16.6514 24.0917Z" fill="#ACD049"/>
<path d="M23.4808 24.0917V24.1368H23.6073L23.4808 24.0917ZM30.6053 24.0917V24.1368H30.7318L30.6053 24.0917Z" fill="#ACD049"/>
<path d="M25.5464 24.8135V24.8586H25.6729L25.5464 24.8135ZM25.7572 24.8586V24.9037H25.8837L25.7572 24.8586Z" fill="#ACD049"/>
<path d="M26.0103 24.9038V24.9489H26.2633L26.0103 24.9038ZM26.6005 24.9038V24.9489H26.8113L26.6005 24.9038ZM12.478 24.9489V26.7535L12.5623 27.3851C12.3955 26.6348 12.7536 25.6518 12.478 24.9489Z" fill="#ACD049"/>
<path d="M15.3025 26.3022V26.3474H15.8927L15.3025 26.3022Z" fill="#ACD049"/>
<path d="M14.9229 26.3474V26.3925H15.0915L14.9229 26.3474ZM16.0611 26.3474V26.3925H16.1876L16.0611 26.3474ZM22.0895 26.3474V26.3925H22.3003L22.0895 26.3474Z" fill="#ACD049"/>
<path d="M19.6445 29.0993L24.7455 26.9338C23.9263 26.2075 22.4654 26.2463 21.4994 26.5111C21.1991 26.5937 20.787 26.706 20.5508 26.9324C20.388 27.0881 20.3183 27.4003 20.2347 27.6105C20.0383 28.105 19.8064 28.5904 19.6445 29.0993Z" fill="#FFE901"/>
<path d="M23.0593 26.3474V26.3925H23.2701L23.0593 26.3474Z" fill="#ACD049"/>
<path d="M29.1719 26.3474V26.3925H29.3405L29.1719 26.3474ZM29.9728 26.3474V26.3925H30.1836L29.9728 26.3474Z" fill="#ACD049"/>
<path d="M21.7944 26.3925V26.4376H21.9209L21.7944 26.3925ZM23.4385 26.3925V26.4376H23.565L23.4385 26.3925Z" fill="#ACD049"/>
<path d="M30.3523 26.3925V26.4376H30.4788L30.3523 26.3925ZM21.5837 26.4376V26.4827H21.7102L21.5837 26.4376Z" fill="#ACD049"/>
<path d="M30.5633 26.4376V26.4827H30.6897L30.5633 26.4376Z" fill="#ACD049"/>
<path d="M30.7317 26.4827V26.5278H30.8582L30.7317 26.4827Z" fill="#ACD049"/>
<path d="M15.3446 29.5956V29.6407H16.0613L15.3446 29.5956ZM29.1298 29.5956V29.6407H29.9308L29.1298 29.5956ZM14.9652 29.6407V29.6858H15.1338L14.9652 29.6407Z" fill="#ACD049"/>
<path d="M12.52 32.9341L14.67 32.0413L15.8197 31.8951L16.033 31.31L16.4827 29.6859C15.4247 29.5965 14.4965 29.7251 13.4896 30.0919C13.2463 30.1808 12.6629 30.3387 12.5454 30.6057C12.464 30.7912 12.52 31.1088 12.52 31.31V32.9341Z" fill="#047DAF"/>
<path d="M16.272 29.6407V29.6859H16.4406L16.272 29.6407ZM28.7925 29.6407V29.6859H28.919L28.7925 29.6407Z" fill="#ACD049"/>
<path d="M25.6731 32.889C26.2857 33.0469 26.9861 33.027 27.5701 32.7595C28.0748 32.5281 28.4986 32.1437 29.0457 32.0169C30.2893 31.7282 31.396 32.298 32.4182 32.9792V31.2198C32.4182 31.014 32.4751 30.6919 32.3506 30.5187C32.1052 30.1781 31.5624 30.0071 31.1956 29.8817C30.2703 29.5659 29.1238 29.4932 28.2025 29.8528C27.8973 29.9715 27.6449 30.188 27.3594 30.3482C27.1269 30.4785 26.7325 30.4546 26.5436 30.627C26.3931 30.7641 26.3346 31.074 26.2633 31.2649C26.0642 31.7977 25.8145 32.3354 25.6731 32.889Z" fill="#047DAF"/>
<path d="M30.1837 29.6407V29.6859H30.3523L30.1837 29.6407ZM14.7122 29.6859V29.731H14.8386L14.7122 29.6859Z" fill="#ACD049"/>
<path d="M30.4789 29.6858V29.7309H30.6054L30.4789 29.6858Z" fill="#ACD049"/>
<path d="M18.6331 32.9341V32.9792C19.7341 32.9792 20.477 32.4139 21.4997 32.1107C22.241 31.8905 22.9871 31.9217 23.734 32.0769L24.0291 30.4528C23.5538 30.543 23.0809 30.8624 22.6379 31.0654C21.3289 31.665 20 32.5127 18.6331 32.9341Z" fill="#047DAF"/>
<path d="M26.5162 30.4979L26.6427 30.5882V30.543L26.5162 30.4979ZM26.8113 30.4979V30.543H26.9378L26.8113 30.4979ZM12.478 30.543V32.3476L12.5623 32.9792C12.3955 32.229 12.7536 31.2459 12.478 30.543Z" fill="#ACD049"/>
<path d="M15.0916 31.9415V31.9866H15.3445L15.0916 31.9415Z" fill="#ACD049"/>
<path d="M22.3003 31.9415V31.9866H23.0591L22.3003 31.9415ZM29.3405 31.9415V31.9866H30.015L29.3405 31.9415ZM14.7964 31.9866V32.0318H14.965L14.7964 31.9866Z" fill="#ACD049"/>
<path d="M21.9209 31.9867V32.0318H22.0895L21.9209 31.9867ZM23.2699 31.9867V32.0318H23.4385L23.2699 31.9867Z" fill="#ACD049"/>
<path d="M29.0454 31.9867V32.0318H29.1719L29.0454 31.9867ZM30.2258 31.9867V32.0318H30.3523L30.2258 31.9867ZM14.5857 32.0318V32.0769H14.7122L14.5857 32.0318Z" fill="#ACD049"/>
<path d="M30.4789 32.0317V32.0768H30.6054L30.4789 32.0317Z" fill="#ACD049"/>
<path d="M21.4993 32.0769V32.122H21.6258L21.4993 32.0769Z" fill="#ACD049"/>
<path d="M25.6308 32.8889V32.934H25.7573L25.6308 32.8889Z" fill="#ACD049"/>
<path d="M19.3074 32.9341V32.9792H19.4339L19.3074 32.9341ZM25.8838 32.9341V32.9792H26.0525L25.8838 32.9341ZM26.8534 32.9341V32.9792H26.9799L26.8534 32.9341ZM18.8437 32.9792V33.0243H19.0123L18.8437 32.9792ZM26.3476 32.9792V33.0243H26.5162L26.3476 32.9792Z" fill="#ACD049"/>
<path d="M15.0496 35.2349V35.28H15.2603L15.0496 35.2349Z" fill="#ACD049"/>
<path d="M12.5201 38.5733C13.5454 38.1143 14.4796 37.5083 15.6397 37.536C16.667 37.5615 17.4041 38.3573 18.3799 38.5455C19.5862 38.7788 20.3992 38.0374 21.4994 37.7235C21.7459 37.6526 22.5316 37.6931 22.6804 37.5086C22.7892 37.3733 22.7832 37.0738 22.8147 36.9041C22.9139 36.3704 23.0611 35.8228 23.1014 35.28C22.3613 35.1329 21.5258 35.3003 20.8249 35.5706C20.2345 35.7979 19.6102 36.1729 18.97 36.1814C18.2891 36.1904 17.7055 35.6518 17.073 35.4479C16.0177 35.1077 14.9079 35.211 13.8691 35.5661C13.5412 35.6784 12.6913 35.8661 12.5455 36.236C12.4679 36.4322 12.5201 36.739 12.5201 36.9493V38.5733Z" fill="#047DAF"/>
<path d="M16.1035 35.2349V35.28H16.3143L16.1035 35.2349ZM21.9633 35.2349V35.28H22.1741L21.9633 35.2349ZM22.9751 35.2349V35.28H23.1437L22.9751 35.2349ZM28.877 35.2349V35.28H29.0878L28.877 35.2349Z" fill="#ACD049"/>
<path d="M24.6192 35.7311L23.8604 37.716C24.9624 38.2413 26.0366 38.85 27.2751 38.4866C28.0218 38.268 28.5765 37.6203 29.3829 37.5825C30.5931 37.5255 31.3792 38.0201 32.4182 38.5732V36.9041C32.4182 36.6902 32.4705 36.3789 32.3748 36.184C32.1903 35.8083 31.5469 35.6134 31.1957 35.4906C30.2878 35.1739 29.1518 35.0932 28.2447 35.4469C27.7109 35.6548 27.3093 36.088 26.727 36.1692C25.9776 36.2738 25.32 35.9359 24.6192 35.7311Z" fill="#047DAF"/>
<path d="M30.015 35.2349V35.28H30.2258L30.015 35.2349ZM14.7964 35.28V35.3251H14.9229L14.7964 35.28ZM16.4405 35.28V35.3251H16.6091L16.4405 35.28ZM21.7101 35.28V35.3251H21.8366L21.7101 35.28Z" fill="#ACD049"/>
<path d="M28.6241 35.28V35.3251H28.7505L28.6241 35.28ZM30.3946 35.28V35.3251H30.5211L30.3946 35.28ZM30.6476 35.3251V35.3703H30.7741L30.6476 35.3251ZM14.3751 35.3703V35.4154H14.5016L14.3751 35.3703ZM14.0378 35.4605V35.5056H14.1643L14.0378 35.4605Z" fill="#ACD049"/>
<path d="M23.0593 35.4604V35.5958H23.1015L23.0593 35.4604Z" fill="#4D6971"/>
<path d="M23.0168 35.686V35.8214H23.059L23.0168 35.686Z" fill="#4D6971"/>
<path d="M22.9749 35.9116V36.047H23.017L22.9749 35.9116Z" fill="#4D6971"/>
<path d="M25.7572 36.0921V36.1372H25.8837L25.7572 36.0921ZM18.6749 36.1372V36.1823H18.8857L18.6749 36.1372ZM19.0122 36.1372V36.1823H19.223L19.0122 36.1372Z" fill="#ACD049"/>
<path d="M22.9329 36.1372V36.2725H22.975L22.9329 36.1372Z" fill="#4D6971"/>
<path d="M26.0525 36.1372V36.1823H26.3476L26.0525 36.1372ZM26.5162 36.1372V36.1823H26.8113L26.5162 36.1372ZM12.478 36.1823V37.9868L12.5623 38.6187C12.3955 37.8683 12.7536 36.8852 12.478 36.1823Z" fill="#ACD049"/>
<path d="M22.8907 36.3627V36.498H22.9328L22.8907 36.3627ZM22.8485 36.5882V36.7236H22.8907L22.8485 36.5882ZM22.8064 36.8138V36.9492H22.8485L22.8064 36.8138ZM22.7642 37.0394V37.1747H22.8064L22.7642 37.0394Z" fill="#4D6971"/>
<path d="M15.2603 37.5356V37.581H15.8926L15.2603 37.5356Z" fill="#ACD049"/>
<path d="M14.9231 37.5811V37.6261H15.0917L14.9231 37.5811ZM16.0613 37.5811V37.6261H16.1878L16.0613 37.5811ZM22.0476 37.5811V37.6261H22.2584L22.0476 37.5811ZM29.1721 37.5811V37.6261H29.3407L29.1721 37.5811ZM30.0152 37.5811V37.6261H30.226L30.0152 37.5811ZM14.6702 37.6261V37.6711H14.7967L14.6702 37.6261ZM21.7946 37.6261V37.6711H21.9211L21.7946 37.6261Z" fill="#ACD049"/>
<path d="M30.3522 37.626V37.671H30.4787L30.3522 37.626ZM21.5836 37.671V37.716H21.7101L21.5836 37.671ZM30.563 37.671V37.716H30.6895L30.563 37.671ZM21.415 37.716V37.7614H21.5415L21.415 37.716Z" fill="#ACD049"/>
<path d="M18.2956 38.5282V38.5732H18.422L18.2956 38.5282ZM19.4338 38.5282V38.5732H19.5603L19.4338 38.5282ZM25.7573 38.5282V38.5732H25.8838L25.7573 38.5282ZM26.9798 38.5282V38.5732H27.1063L26.9798 38.5282ZM18.5485 38.5732V38.6186H18.8015L18.5485 38.5732ZM19.0544 38.5732V38.6186H19.3073L19.0544 38.5732ZM26.0102 38.5732V38.6186H26.3053L26.0102 38.5732ZM26.6005 38.5732V38.6186H26.8534L26.6005 38.5732Z" fill="#ACD049"/>
<path fill-rule="evenodd" clip-rule="evenodd" d="M47.1729 34.6936V47.7315H48.3954V36.453H48.4377L49.07 37.5357L50.2366 39.4305L53.7916 45.2052L54.9016 47.0097L55.4011 47.7045L56.7425 47.7315V34.6936H55.562V46.0174C55.2657 45.5468 54.9684 45.0765 54.6706 44.6059L54.6699 44.6052V44.6048L54.6695 44.604H54.6691C53.2479 42.3567 51.8221 40.1022 50.4789 37.8064C50.1702 37.2786 49.8444 36.7612 49.5189 36.2442C49.3925 36.0433 49.2657 35.8424 49.1405 35.641C49.0951 35.5681 49.0471 35.4757 48.9961 35.3772C48.8701 35.1335 48.7246 34.8528 48.5502 34.74C48.3312 34.5981 47.8876 34.6379 47.5272 34.6703C47.3919 34.6825 47.2685 34.6936 47.1729 34.6936ZM128.999 34.6936V47.7315H130.179V42.0019C130.518 42.0019 130.869 42.012 131.227 42.0222C132.896 42.0698 134.719 42.1219 136.124 41.187C137.842 40.0433 138.024 36.6452 136.292 35.3937C135.323 34.693 134.187 34.6933 133.067 34.6935L133.004 34.6936H128.999ZM96.2855 35.7312V38.3479H95.0206V39.2952H96.2855V44.4833C96.2855 44.6955 96.2757 44.9205 96.2656 45.1512V45.1515C96.2367 45.8127 96.2056 46.5188 96.3991 47.1C96.6826 47.9509 97.5747 48.0855 98.309 47.9535C98.3446 47.9472 98.3892 47.9415 98.4387 47.9355C98.63 47.9123 98.8932 47.88 98.9821 47.7514C99.0804 47.6097 99.0564 47.2965 99.038 47.0505V47.0502C99.0316 46.9654 99.0256 46.8885 99.0256 46.8293C98.5891 46.95 97.8185 47.16 97.4952 46.6894C97.2425 46.3208 97.2845 45.6398 97.319 45.0859V45.0855C97.3295 44.9134 97.3392 44.7533 97.3392 44.6187V39.2952H98.9836V38.3479H97.3392V35.7312H96.2855ZM130.179 40.8743V35.7763H132.878C133.675 35.7763 134.516 35.7822 135.238 36.1968C136.633 36.9975 136.654 39.5899 135.281 40.4284C134.577 40.8578 133.705 40.8743 132.92 40.8743H130.179ZM69.3054 44.754H68.2512C68.2516 47.3007 70.5125 48.2359 72.5514 47.9243C73.6186 47.7608 74.7489 47.2062 75.0789 46.0174C75.1565 45.7365 75.1655 45.45 75.1651 45.1602C75.1621 43.2795 73.4795 42.8363 72.0432 42.4579V42.4575C71.7942 42.3923 71.5527 42.3285 71.3289 42.2595C70.6201 42.0417 69.695 41.739 69.5709 40.8289C69.4216 39.7354 70.5009 39.1163 71.3709 39.1148C72.6425 39.1125 73.6006 39.6334 73.8582 41.0547H74.9544C74.9454 41.0157 74.9364 40.9767 74.9274 40.9377C74.7309 40.0782 74.5445 39.2618 73.8159 38.7105C72.2604 37.5345 68.8287 37.8128 68.4747 40.2428C68.4297 40.5525 68.4207 40.8345 68.4552 41.145C68.6427 42.8142 70.1412 43.152 71.4631 43.4505C71.6934 43.5023 71.918 43.5533 72.1299 43.6095C72.8341 43.7967 73.8639 44.0712 74.0127 44.9798C74.2299 46.3043 72.9564 46.9647 71.9187 46.9647C70.5432 46.9647 69.5904 46.227 69.3054 44.754ZM77.1042 41.19C77.1654 41.19 77.2501 41.1975 77.3457 41.2065C77.6214 41.2313 77.9862 41.2647 78.1268 41.1435C78.2206 41.0633 78.2675 40.8372 78.3102 40.6328C78.3346 40.5147 78.3579 40.404 78.3875 40.3328C78.5746 39.8828 78.9233 39.5547 79.3385 39.3544C80.1282 38.9734 81.431 38.9464 82.163 39.4857C82.7217 39.8974 83.1755 41.1278 82.6452 41.7615C82.3595 42.1035 81.7981 42.1617 81.3357 42.21C81.2247 42.2213 81.1193 42.2325 81.0248 42.2464C80.8542 42.2723 80.6735 42.2959 80.486 42.3203C79.0722 42.504 77.2899 42.7354 76.8102 44.3479C76.2226 46.3245 77.5696 47.8654 79.3805 47.9982C80.7099 48.0957 81.9522 47.5054 82.8796 46.5135C82.8867 47.4529 83.333 47.8684 84.1865 47.8669H84.2056C84.4197 47.8665 84.8112 47.8662 84.944 47.6633C85.034 47.5264 85.0141 47.2519 84.998 47.0307C84.9927 46.9545 84.9875 46.8852 84.9875 46.8293C84.9087 46.836 84.8229 46.86 84.7355 46.884C84.5761 46.9283 84.4111 46.974 84.2709 46.9227C83.8329 46.7625 83.8636 46.0043 83.8842 45.5003C83.888 45.4062 83.8914 45.321 83.8914 45.2502V41.3254C83.8914 40.4682 83.8752 39.5824 83.2572 38.9385C82.6238 38.2778 81.668 38.0772 80.8141 38.0772C79.0066 38.0772 77.1054 38.9674 77.1042 41.19ZM87.5592 39.5659V38.3479H86.5051V47.7315H87.5592V43.3557C87.5592 43.29 87.5588 43.224 87.5588 43.1573C87.5562 42.2865 87.5536 41.3299 87.9571 40.5585C88.6992 39.138 91.0313 38.3768 92.0513 39.9267C92.4777 40.5747 92.465 41.3997 92.453 42.1718C92.4511 42.2974 92.4492 42.4215 92.4492 42.5434V47.7315H93.503V42.6788C93.503 42.4793 93.5094 42.273 93.5157 42.0638V42.0634C93.5375 41.358 93.56 40.6163 93.347 39.972C92.7916 38.2924 90.7576 37.6977 89.2876 38.2512C88.6107 38.5065 88.0583 39.0319 87.5592 39.5659ZM100.586 41.19H101.682C101.751 39.4977 103.364 38.9265 104.717 39.1343C105.635 39.2749 106.461 40.0193 106.349 41.0997C106.252 42.0319 105.475 42.1268 104.748 42.2153C104.681 42.2235 104.614 42.2314 104.548 42.2404C104.401 42.2599 104.247 42.2783 104.09 42.297H104.089C102.791 42.4515 101.212 42.6394 100.498 43.8968C99.5611 45.5479 100.582 47.4923 102.23 47.901C103.75 48.2787 105.285 47.6652 106.361 46.5135C106.386 46.8582 106.424 47.2692 106.637 47.5467C107.029 48.0544 107.844 47.8714 108.381 47.751C108.396 47.7477 108.41 47.7447 108.424 47.7417C108.439 47.7383 108.454 47.7349 108.469 47.7315V46.8293C108.389 46.8368 108.305 46.8604 108.22 46.8844C108.076 46.9253 107.929 46.9665 107.794 46.9313C107.33 46.8087 107.374 46.0144 107.403 45.4902C107.409 45.3803 107.415 45.2828 107.415 45.2052V41.4154C107.415 40.5345 107.367 39.5922 106.74 38.9363C106.119 38.2868 105.177 38.0772 104.337 38.0772C102.505 38.0772 100.628 38.946 100.586 41.19ZM111.167 40.017H111.125V38.3479H110.071V47.7315H111.125V46.0174V44.709C111.125 44.5489 111.123 44.382 111.121 44.2099V44.2092C111.102 42.3975 111.077 40.0253 113.022 39.4377C113.354 39.3372 113.69 39.2952 114.033 39.2952V38.0772C112.845 38.0772 111.41 38.5579 111.167 40.017ZM115.593 41.19H116.689C116.871 39.6818 117.954 39.1148 119.261 39.1148C120.439 39.1148 121.564 39.8573 121.35 41.2804C121.235 42.0447 120.451 42.1377 119.825 42.2119C119.746 42.2213 119.67 42.2303 119.598 42.2404C119.429 42.2637 119.253 42.285 119.072 42.3068C117.777 42.4624 116.239 42.6477 115.528 43.8968C114.627 45.4804 115.549 47.4405 117.153 47.8714C118.708 48.2895 120.294 47.6989 121.411 46.5135C121.415 47.9134 122.438 47.9865 123.477 47.7315V46.8293C123.411 46.8387 123.34 46.8585 123.267 46.8788C123.109 46.9223 122.943 46.968 122.802 46.9204C122.351 46.7678 122.388 45.9938 122.413 45.477V45.4767V45.4755C122.418 45.3732 122.423 45.2805 122.423 45.2052V41.5058C122.423 41.4792 122.423 41.4525 122.423 41.4259V41.4255C122.423 40.5964 122.424 39.7474 121.897 39.0702C121.56 38.6374 121.06 38.4012 120.568 38.2448C119.255 37.8282 117.357 38.0224 116.364 39.1223C115.853 39.6885 115.735 40.3684 115.608 41.1012L115.608 41.1042L115.602 41.1375C115.599 41.1552 115.596 41.1724 115.593 41.19ZM142.194 38.0967C141.463 38.2032 140.744 38.4225 140.171 38.9479C138.261 40.6965 138.079 44.6644 139.756 46.6489C140.687 47.7499 142.121 48.1373 143.459 47.9442C147.103 47.4188 147.868 41.6074 145.512 39.1343C144.665 38.2444 143.352 37.9272 142.194 38.0967ZM168.247 44.799C168.175 44.799 168.076 44.79 167.966 44.7799C167.657 44.7518 167.256 44.7154 167.09 44.8455C166.983 44.9299 166.915 45.1448 166.851 45.3443C166.813 45.4647 166.776 45.5794 166.734 45.6563C166.493 46.0992 166.068 46.4862 165.633 46.6984C163.377 47.8002 161.503 45.648 161.502 43.3103H168.289C168.289 41.6749 168.007 39.8978 166.729 38.8223C165.391 37.6958 163.137 37.833 161.881 39.0323C161.015 39.8595 160.523 41.0925 160.413 42.318C160.271 43.9028 160.491 45.8708 161.671 46.9965C162.898 48.1669 165.156 48.3927 166.561 47.4507C167.405 46.8844 168.024 45.831 168.247 44.799ZM171.366 40.062H171.324V38.3479H170.27V47.7315H171.324V46.0174C171.324 45.7122 171.314 45.3769 171.302 45.0237V45.0233V45.0229C171.233 42.9004 171.144 40.134 173.264 39.432C173.579 39.3274 173.905 39.2952 174.233 39.2952V38.0772C173.027 38.0772 171.611 38.598 171.366 40.062ZM59.2719 43.1299V38.3479H60.326V43.536C60.326 43.6395 60.3249 43.7442 60.3237 43.8499C60.3155 44.6625 60.3069 45.5209 60.7794 46.1978C61.805 47.6663 64.0021 46.9272 64.7341 45.5659C65.2179 44.6667 65.2171 43.6339 65.216 42.6282C65.216 42.5847 65.216 42.5415 65.216 42.4984V38.3479H66.2697V47.7315H65.216V46.5135C65.1867 46.5447 65.1575 46.5762 65.1282 46.6077C64.7296 47.0359 64.304 47.4934 63.7827 47.7372C62.2771 48.4414 60.1089 47.9055 59.5122 46.1524C59.2411 45.3567 59.2539 44.4998 59.2666 43.6579C59.2692 43.4809 59.2719 43.3047 59.2719 43.1299ZM148.152 40.161C147.957 39.5625 147.758 38.9498 147.674 38.3479L148.699 38.3944L148.915 38.9794L149.336 40.4682L150.426 44.3029L151.005 46.1978L151.535 43.9872L152.414 40.5132L152.944 38.3479H154.167L155.531 43.9872L156.021 46.1074H156.064C156.334 45.219 156.588 44.3247 156.842 43.4303C157.124 42.4403 157.405 41.4503 157.708 40.4682C157.809 40.14 157.904 39.8085 157.998 39.4774L157.998 39.4767L157.999 39.474C158.042 39.324 158.085 39.174 158.128 39.0244C158.142 38.9757 158.154 38.9194 158.167 38.8602C158.202 38.7008 158.24 38.5215 158.333 38.4199C158.469 38.2729 158.871 38.3078 159.162 38.3329C159.255 38.3408 159.336 38.3479 159.394 38.3479C159.318 38.8958 159.128 39.4467 158.94 39.987C158.853 40.2405 158.766 40.4914 158.692 40.7389L158.606 41.0262L158.528 41.2898C158.147 42.5667 157.766 43.8439 157.37 45.1148C157.278 45.4122 157.189 45.7099 157.099 46.008V46.0088C157.008 46.3125 156.917 46.6167 156.822 46.9197C156.804 46.9789 156.787 47.0513 156.769 47.1278V47.1282V47.1285C156.724 47.3213 156.673 47.5425 156.572 47.6595C156.44 47.814 155.991 47.775 155.675 47.7477C155.576 47.739 155.49 47.7315 155.431 47.7315L154.067 42.0923L153.576 39.972H153.492C153.461 40.3748 153.347 40.7809 153.234 41.1803C153.181 41.3659 153.129 41.5497 153.086 41.7315C152.794 42.966 152.498 44.205 152.173 45.4309C152.115 45.6477 152.072 45.9027 152.027 46.167C151.937 46.6905 151.842 47.2515 151.619 47.6269C151.505 47.8189 150.575 47.8009 150.39 47.7045C150.274 47.6434 150.23 47.4424 150.194 47.2804C150.183 47.2294 150.173 47.1825 150.162 47.145C149.984 46.5634 149.82 45.9735 149.662 45.3855C149.321 44.1192 148.954 42.858 148.587 41.5988C148.521 41.3723 148.455 41.1458 148.39 40.9193C148.318 40.6707 148.235 40.4175 148.152 40.1618V40.1614L148.152 40.161ZM142.236 39.1347C138.489 39.7609 139.09 47.5699 143.164 46.9452C145.257 46.6245 145.822 44.2523 145.654 42.318C145.587 41.5493 145.392 40.713 144.92 40.1074C144.268 39.2689 143.225 38.9697 142.236 39.1347ZM161.502 42.363H167.193C167.171 42.2385 167.152 42.1159 167.133 41.9948L167.132 41.994C167.009 41.2189 166.896 40.5177 166.343 39.8835C165.473 38.8887 163.676 38.8152 162.725 39.7095C161.973 40.4153 161.681 41.346 161.502 42.363ZM82.331 42.9942C82.4979 42.948 82.6659 42.9015 82.8372 42.8592C82.8372 43.0362 82.8432 43.2184 82.8496 43.4033C82.8706 44.0449 82.8927 44.7173 82.6677 45.2955C82.0602 46.8574 79.4026 47.6378 78.2071 46.4097C77.2006 45.3747 78.1209 43.8668 79.2117 43.5319C79.6524 43.3965 80.108 43.3568 80.5629 43.317C80.7736 43.2987 80.9843 43.2803 81.1932 43.2525C81.5888 43.2 81.9575 43.0977 82.331 42.9942ZM105.826 43.0088C106.003 42.9507 106.18 42.8925 106.361 42.8592C106.361 43.02 106.365 43.1858 106.37 43.3534C106.387 43.9785 106.404 44.6352 106.195 45.2052C105.597 46.8345 102.845 47.7203 101.643 46.3324C101.103 45.7069 101.216 44.5583 101.811 44.0172C102.275 43.596 102.905 43.4438 103.494 43.3684C103.722 43.3392 103.95 43.3185 104.178 43.2975C104.555 43.263 104.933 43.2282 105.307 43.1562C105.483 43.122 105.655 43.0654 105.826 43.0088ZM120.866 42.9934C121.032 42.9473 121.199 42.9012 121.368 42.8592C121.368 43.0328 121.375 43.2132 121.381 43.3965C121.403 44.025 121.425 44.6899 121.205 45.2502C120.59 46.8143 117.965 47.6742 116.735 46.4153C115.763 45.4193 116.578 43.9017 117.659 43.5559C118.128 43.4055 118.609 43.362 119.092 43.3185C119.303 43.2998 119.514 43.2807 119.724 43.2525C120.119 43.2 120.49 43.0973 120.866 42.9934Z" fill="#047DAF"/>
</svg>
