<svg width="252" height="84" viewBox="0 0 252 84" fill="none" xmlns="http://www.w3.org/2000/svg">
<path d="M8.08496 16.8015V66.8241H54.8283V16.8015H8.08496Z" fill="#FFE901"/>
<path fill-rule="evenodd" clip-rule="evenodd" d="M66.0417 41.876V16.8015H75.4261C75.5626 16.8015 75.6997 16.8012 75.8362 16.8008C77.9498 16.7951 80.0372 16.7894 81.8589 18.1557C86.2731 21.4653 86.2322 29.9893 81.5051 33.0052C79.2675 34.4322 76.4205 34.3229 73.7734 34.2212C73.1072 34.1956 72.4536 34.1705 71.8257 34.1705V41.876H66.0417ZM93.9581 41.876V16.8015H99.742V36.5706H110.897V41.876H93.9581ZM120.34 41.876V16.8015H124.589L126.222 16.8666L127.129 18.191L129.095 21.2227L133.558 28.1071L136.039 31.8967V16.8015H141.823V41.876H137.396L135.525 41.8381L134.775 40.8023L133.063 38.1496L128.796 31.5178L126.183 27.4124H126.124V41.876H120.34ZM71.8257 28.8019V22.107H75.4256C75.539 22.107 75.6534 22.1052 75.7679 22.1035C76.4131 22.0937 77.0731 22.0838 77.6684 22.3798C79.7143 23.3979 79.7332 27.2173 77.8459 28.4173C77.2169 28.817 76.5155 28.8103 75.8136 28.8037C75.7238 28.8028 75.6335 28.8019 75.5437 28.8019H71.8257Z" fill="white"/>
<path d="M21.1282 48.4446L24.6103 46.829L33.6403 42.5708C32.8765 48.9006 30.922 55.0626 30.1582 61.3925H30.2172L32.8022 54.4447L37.0401 43.0129L38.9999 37.7706L39.8373 35.4337L31.2795 39.1223L27.5023 40.7392C28.9153 37.0531 30.4159 33.3936 31.9205 29.7493C32.7509 27.7377 33.8658 25.6167 34.4076 23.4965H30.0992C29.7073 23.4965 28.8028 23.3165 28.4767 23.5615C28.1529 23.8047 28.0113 24.8658 27.8989 25.2649C27.459 26.8275 26.9616 28.3724 26.5329 29.9388C25.4275 33.9785 24.1936 37.9929 22.9965 42.0024L21.8161 45.9814C21.5772 46.7816 21.2427 47.6122 21.1282 48.4446Z" fill="#DF0813"/>
<path d="M21.1282 33.6021V33.6653H21.4823L21.1282 33.6021Z" fill="#ACD049"/>
<path d="M17.528 38.2758C18.979 37.6259 20.4159 36.6646 22.0725 36.8339C22.8916 36.9179 23.4934 37.3461 24.2562 37.581L25.2005 34.4862C23.1963 33.5931 21.4006 33.3639 19.2986 34.1073C18.8458 34.2677 17.8581 34.5008 17.5887 34.953C17.445 35.1942 17.528 35.6635 17.528 35.9389V38.2758Z" fill="#047DAF"/>
<path d="M22.4858 33.6021V33.6652H22.7809L22.4858 33.6021ZM30.8076 33.6021V33.6652H31.1617L30.8076 33.6021Z" fill="#ACD049"/>
<path d="M28.7419 37.6443C30.0162 37.2514 31.0232 36.7562 32.4011 36.897C32.9071 36.9488 33.4044 37.0777 33.8766 37.2779C34.1431 37.391 34.4659 37.6493 34.7619 37.5994C35.2139 37.523 35.695 37.2198 36.1193 37.0379C37.3581 36.5074 38.6095 35.8101 39.8966 35.4336L39.0113 37.7706C39.49 37.5312 39.9109 37.175 40.4278 37.0227C42.3052 36.4695 43.786 37.4244 45.3854 38.2758V36.0021C45.3854 35.6989 45.4536 35.2808 45.3498 34.9941C45.1214 34.3637 43.929 34.0258 43.3787 33.8786C42.1857 33.559 40.848 33.4523 39.6605 33.8565C38.538 34.238 37.8644 35.0497 36.5915 34.9176C35.0757 34.7604 33.7391 33.8578 32.2241 33.6475C31.7132 33.5761 30.8815 33.4978 30.4071 33.7605C30.1181 33.921 30.0012 34.5014 29.8799 34.802C29.4986 35.7482 29.1072 36.6912 28.7419 37.6443Z" fill="#047DAF"/>
<path d="M32.1058 33.6021V33.6652H32.4008L32.1058 33.6021ZM40.4865 33.6021V33.6652H40.7816L40.4865 33.6021ZM41.903 33.6021V33.6652H42.2571L41.903 33.6021ZM20.715 33.6652V33.7284H20.9511L20.715 33.6652ZM23.0168 33.6652V33.7284H23.1939L23.0168 33.6652ZM30.3942 33.6652V33.7284H30.6303L30.3942 33.6652ZM32.5779 33.6652V33.7284H32.755L32.5779 33.6652ZM40.1324 33.6652V33.7284H40.3094L40.1324 33.6652ZM42.4932 33.6652V33.7284H42.7293L42.4932 33.6652ZM20.4199 33.7284V33.7915H20.597L20.4199 33.7284ZM23.3119 33.7284V33.7915H23.4889L23.3119 33.7284Z" fill="#ACD049"/>
<path d="M32.8732 33.7284V33.7916H33.0502L32.8732 33.7284ZM42.8474 33.7284V33.7916H43.0245L42.8474 33.7284Z" fill="#ACD049"/>
<path d="M35.7651 34.7389V34.8021H35.9421L35.7651 34.7389ZM36.0602 34.8021V34.8653H36.2372L36.0602 34.8021Z" fill="#ACD049"/>
<path d="M36.4144 34.8652V34.9284H36.7686L36.4144 34.8652ZM37.2407 34.8652V34.9284H37.5358L37.2407 34.8652ZM17.4692 34.9284V37.4547L17.5873 38.339C17.3536 37.2886 17.8551 35.9124 17.4692 34.9284Z" fill="#ACD049"/>
<path d="M21.4236 36.8232V36.8864H22.2499L21.4236 36.8232Z" fill="#ACD049"/>
<path d="M20.8921 36.8864V36.9495H21.1282L20.8921 36.8864ZM22.4856 36.8864V36.9495H22.6627L22.4856 36.8864ZM30.9254 36.8864V36.9495H31.2205L30.9254 36.8864Z" fill="#ACD049"/>
<path d="M27.5024 40.7391L34.6438 37.7074C33.4969 36.6905 31.4517 36.7448 30.0993 37.1156C29.6789 37.2312 29.102 37.3884 28.7713 37.7055C28.5433 37.9234 28.4457 38.3604 28.3287 38.6548C28.0537 39.347 27.729 40.0266 27.5024 40.7391Z" fill="#FFE901"/>
<path d="M32.283 36.8864V36.9495H32.5781L32.283 36.8864Z" fill="#ACD049"/>
<path d="M40.8408 36.8864V36.9495H41.0768L40.8408 36.8864ZM41.9621 36.8864V36.9495H42.2572L41.9621 36.8864Z" fill="#ACD049"/>
<path d="M30.5125 36.9495V37.0126H30.6895L30.5125 36.9495ZM32.8142 36.9495V37.0126H32.9912L32.8142 36.9495Z" fill="#ACD049"/>
<path d="M42.4935 36.9495V37.0126H42.6705L42.4935 36.9495ZM30.2174 37.0126V37.0758H30.3945L30.2174 37.0126Z" fill="#ACD049"/>
<path d="M42.7886 37.0127V37.0759H42.9656L42.7886 37.0127Z" fill="#ACD049"/>
<path d="M43.0244 37.0758V37.139H43.2015L43.0244 37.0758Z" fill="#ACD049"/>
<path d="M21.4824 41.4339V41.497H22.4858L21.4824 41.4339ZM40.7818 41.4339V41.497H41.9032L40.7818 41.4339ZM20.9513 41.497V41.5602H21.1873L20.9513 41.497Z" fill="#ACD049"/>
<path d="M17.528 46.1077L20.538 44.8578L22.1475 44.6532L22.4462 43.834L23.0758 41.5602C21.5945 41.4351 20.2951 41.6151 18.8854 42.1286C18.5448 42.2531 17.7281 42.4741 17.5636 42.848C17.4496 43.1076 17.528 43.5522 17.528 43.834V46.1077Z" fill="#047DAF"/>
<path d="M22.7808 41.4969V41.5601H23.0169L22.7808 41.4969ZM40.3095 41.4969V41.5601H40.4866L40.3095 41.4969Z" fill="#ACD049"/>
<path d="M35.9421 46.0446C36.7998 46.2656 37.7804 46.2378 38.598 45.8633C39.3045 45.5392 39.8979 45.0011 40.6637 44.8237C42.4049 44.4194 43.9542 45.2172 45.3853 46.1709V43.7076C45.3853 43.4196 45.4649 42.9686 45.2907 42.7261C44.9471 42.2493 44.1872 42.0099 43.6737 41.8343C42.3782 41.3922 40.7732 41.2905 39.4833 41.7939C39.056 41.96 38.7026 42.2631 38.3029 42.4874C37.9775 42.6699 37.4254 42.6364 37.1608 42.8777C36.9501 43.0697 36.8682 43.5036 36.7684 43.7708C36.4897 44.5167 36.1402 45.2695 35.9421 46.0446Z" fill="#047DAF"/>
<path d="M42.2571 41.4969V41.5601H42.4931L42.2571 41.4969ZM20.5969 41.5601V41.6233H20.774L20.5969 41.5601Z" fill="#ACD049"/>
<path d="M42.6705 41.5602V41.6233H42.8476L42.6705 41.5602Z" fill="#ACD049"/>
<path d="M26.0862 46.1077V46.1709C27.6276 46.1709 28.6677 45.3795 30.0995 44.955C31.1373 44.6468 32.1818 44.6904 33.2275 44.9077L33.6407 42.6339C32.9753 42.7602 32.3132 43.2074 31.693 43.4917C29.8604 44.331 27.9999 45.5178 26.0862 46.1077Z" fill="#047DAF"/>
<path d="M37.1227 42.697L37.2997 42.8233V42.7602L37.1227 42.697ZM37.5358 42.697V42.7602H37.7129L37.5358 42.697ZM17.4692 42.7602V45.2866L17.5873 46.1708C17.3536 45.1205 17.8551 43.7442 17.4692 42.7602Z" fill="#ACD049"/>
<path d="M21.1282 44.7181V44.7813H21.4823L21.1282 44.7181Z" fill="#ACD049"/>
<path d="M31.2203 44.7181V44.7813H32.2826L31.2203 44.7181ZM41.0765 44.7181V44.7813H42.0209L41.0765 44.7181ZM20.7148 44.7813V44.8445H20.9509L20.7148 44.7813Z" fill="#ACD049"/>
<path d="M30.6895 44.7814V44.8445H30.9255L30.6895 44.7814ZM32.578 44.7814V44.8445H32.8141L32.578 44.7814Z" fill="#ACD049"/>
<path d="M40.6636 44.7814V44.8445H40.8406L40.6636 44.7814ZM42.3161 44.7814V44.8445H42.4932L42.3161 44.7814ZM20.4199 44.8445V44.9077H20.597L20.4199 44.8445Z" fill="#ACD049"/>
<path d="M42.6704 44.8445V44.9076H42.8475L42.6704 44.8445Z" fill="#ACD049"/>
<path d="M30.0991 44.9077V44.9709H30.2762L30.0991 44.9077Z" fill="#ACD049"/>
<path d="M35.883 46.0446V46.1077H36.0601L35.883 46.0446Z" fill="#ACD049"/>
<path d="M27.0303 46.1077V46.1708H27.2074L27.0303 46.1077ZM36.2373 46.1077V46.1708H36.4734L36.2373 46.1077ZM37.5948 46.1077V46.1708H37.7718L37.5948 46.1077ZM26.3811 46.1708V46.234H26.6172L26.3811 46.1708ZM36.8865 46.1708V46.234H37.1226L36.8865 46.1708Z" fill="#ACD049"/>
<path d="M21.0693 49.3288V49.3919H21.3644L21.0693 49.3288Z" fill="#ACD049"/>
<path d="M17.5281 54.0025C18.9635 53.3599 20.2715 52.5115 21.8956 52.5504C23.3338 52.5861 24.3658 53.7001 25.7318 53.9637C27.4207 54.2902 28.559 53.2523 30.0993 52.8129C30.4443 52.7137 31.5442 52.7704 31.7526 52.5121C31.905 52.3226 31.8966 51.9033 31.9407 51.6658C32.0795 50.9186 32.2855 50.1518 32.342 49.392C31.3059 49.1861 30.1362 49.4204 29.155 49.7987C28.3283 50.1171 27.4544 50.6419 26.5581 50.6539C25.6047 50.6666 24.7877 49.9124 23.9022 49.627C22.4248 49.1507 20.8711 49.2954 19.4168 49.7924C18.9577 49.9497 17.7678 50.2124 17.5637 50.7304C17.4552 51.0051 17.5281 51.4346 17.5281 51.7289V54.0025Z" fill="#047DAF"/>
<path d="M22.5449 49.3289V49.392H22.84L22.5449 49.3289ZM30.7486 49.3289V49.392H31.0437L30.7486 49.3289ZM32.1651 49.3289V49.392H32.4012L32.1651 49.3289ZM40.4278 49.3289V49.392H40.7229L40.4278 49.3289Z" fill="#ACD049"/>
<path d="M34.4667 50.0237L33.4043 52.8024C34.9472 53.538 36.4511 54.39 38.1849 53.8813C39.2304 53.5752 40.007 52.6686 41.1359 52.6155C42.8301 52.5357 43.9307 53.2282 45.3853 54.0026V51.6658C45.3853 51.3664 45.4586 50.9306 45.3246 50.6578C45.0663 50.1317 44.1654 49.8588 43.6737 49.687C42.4027 49.2436 40.8124 49.1305 39.5423 49.6257C38.795 49.9169 38.2328 50.5233 37.4177 50.6369C36.3685 50.7835 35.4478 50.3104 34.4667 50.0237Z" fill="#047DAF"/>
<path d="M42.0209 49.3289V49.392H42.316L42.0209 49.3289ZM20.7148 49.392V49.4552H20.8919L20.7148 49.392ZM23.0166 49.392V49.4552H23.2527L23.0166 49.392ZM30.3941 49.392V49.4552H30.5711L30.3941 49.392Z" fill="#ACD049"/>
<path d="M40.0738 49.392V49.4551H40.2508L40.0738 49.392ZM42.5526 49.392V49.4551H42.7297L42.5526 49.392ZM42.9067 49.4551V49.5183H43.0838L42.9067 49.4551ZM20.1252 49.5183V49.5814H20.3023L20.1252 49.5183ZM19.6531 49.6446V49.7078H19.8301L19.6531 49.6446Z" fill="#ACD049"/>
<path d="M32.283 49.6447V49.8341H32.342L32.283 49.6447Z" fill="#4D6971"/>
<path d="M32.2236 49.9604V50.1499H32.2826L32.2236 49.9604Z" fill="#4D6971"/>
<path d="M32.1648 50.2762V50.4657H32.2238L32.1648 50.2762Z" fill="#4D6971"/>
<path d="M36.0602 50.5289V50.592H36.2372L36.0602 50.5289ZM26.1449 50.592V50.6552H26.44L26.1449 50.592ZM26.6171 50.592V50.6552H26.9122L26.6171 50.592Z" fill="#ACD049"/>
<path d="M32.106 50.592V50.7815H32.165L32.106 50.592Z" fill="#4D6971"/>
<path d="M36.4735 50.592V50.6552H36.8866L36.4735 50.592ZM37.1227 50.592V50.6552H37.5358L37.1227 50.592ZM17.4692 50.6552V53.1814L17.5873 54.0661C17.3536 53.0155 17.8551 51.6393 17.4692 50.6552Z" fill="#ACD049"/>
<path d="M32.0467 50.9078V51.0973H32.1058L32.0467 50.9078ZM31.9877 51.2236V51.4131H32.0467L31.9877 51.2236ZM31.9287 51.5394V51.7289H31.9877L31.9287 51.5394ZM31.8697 51.8552V52.0447H31.9287L31.8697 51.8552Z" fill="#4D6971"/>
<path d="M21.3645 52.5499V52.6134H22.2498L21.3645 52.5499Z" fill="#ACD049"/>
<path d="M20.8922 52.6134V52.6764H21.1283L20.8922 52.6134ZM22.4857 52.6134V52.6764H22.6628L22.4857 52.6134ZM30.8665 52.6134V52.6764H31.1616L30.8665 52.6134ZM40.8408 52.6134V52.6764H41.0768L40.8408 52.6134ZM42.0211 52.6134V52.6764H42.3162L42.0211 52.6134ZM20.5381 52.6764V52.7394H20.7152L20.5381 52.6764ZM30.5124 52.6764V52.7394H30.6894L30.5124 52.6764Z" fill="#ACD049"/>
<path d="M42.4933 52.6764V52.7394H42.6704L42.4933 52.6764ZM30.2173 52.7394V52.8024H30.3944L30.2173 52.7394ZM42.7884 52.7394V52.8024H42.9655L42.7884 52.7394ZM29.9813 52.8024V52.8659H30.1583L29.9813 52.8024Z" fill="#ACD049"/>
<path d="M25.6138 53.9395V54.0025H25.7909L25.6138 53.9395ZM27.2073 53.9395V54.0025H27.3844L27.2073 53.9395ZM36.0602 53.9395V54.0025H36.2373L36.0602 53.9395ZM37.7718 53.9395V54.0025H37.9489L37.7718 53.9395ZM25.9679 54.0025V54.066H26.3221L25.9679 54.0025ZM26.6762 54.0025V54.066H27.0303L26.6762 54.0025ZM36.4143 54.0025V54.066H36.8275L36.4143 54.0025ZM37.2406 54.0025V54.066H37.5948L37.2406 54.0025Z" fill="#ACD049"/>
<path fill-rule="evenodd" clip-rule="evenodd" d="M66.0417 48.571V66.8241H67.7533V51.0342H67.8126L68.6977 52.5499L70.331 55.2027L75.308 63.2872L76.862 65.8135L77.5613 66.7863L79.4392 66.8241V48.571H77.7865V64.4244C77.3718 63.7655 76.9555 63.1071 76.5386 62.4483L76.5376 62.4472V62.4467L76.537 62.4456H76.5365C74.5467 59.2993 72.5507 56.143 70.6701 52.929C70.2381 52.19 69.7819 51.4656 69.3262 50.7419C69.1492 50.4606 68.9718 50.1793 68.7964 49.8974C68.7329 49.7953 68.6657 49.6659 68.5943 49.5281C68.4179 49.1869 68.2142 48.7939 67.9701 48.636C67.6635 48.4373 67.0424 48.4931 66.5379 48.5384C66.3484 48.5555 66.1756 48.571 66.0417 48.571ZM180.598 48.571V66.8241H182.251V58.8027C182.725 58.8027 183.216 58.8168 183.718 58.831C186.054 58.8977 188.607 58.9707 190.573 57.6618C192.978 56.0606 193.233 51.3033 190.809 49.5512C189.452 48.5703 187.862 48.5706 186.293 48.5709L186.205 48.571H180.598ZM134.799 50.0237V53.6871H133.029V55.0132H134.799V62.2766C134.799 62.5737 134.786 62.8887 134.772 63.2116V63.2121C134.731 64.1377 134.688 65.1263 134.958 65.94C135.355 67.1313 136.604 67.3197 137.632 67.1349C137.682 67.126 137.745 67.1181 137.814 67.1097C138.082 67.0772 138.45 67.032 138.575 66.852C138.712 66.6535 138.679 66.2151 138.653 65.8707V65.8702C138.644 65.7516 138.636 65.6439 138.636 65.561C138.024 65.73 136.946 66.024 136.493 65.3652C136.139 64.8491 136.198 63.8957 136.246 63.1203V63.1197C136.261 62.8788 136.275 62.6546 136.275 62.4661V55.0132H138.577V53.6871H136.275V50.0237H134.799ZM182.251 57.224V50.0868H186.028C187.145 50.0868 188.322 50.095 189.333 50.6755C191.286 51.7965 191.315 55.4259 189.393 56.5998C188.408 57.2009 187.187 57.224 186.087 57.224H182.251ZM97.0273 62.6556H95.5515C95.552 66.2209 98.7172 67.5303 101.572 67.094C103.066 66.8651 104.648 66.0886 105.11 64.4244C105.219 64.0311 105.231 63.63 105.231 63.2242C105.227 60.5913 102.871 59.9708 100.86 59.4411V59.4405C100.512 59.3492 100.174 59.2599 99.8601 59.1633C98.8679 58.8583 97.5727 58.4346 97.3989 57.1605C97.19 55.6296 98.7009 54.7628 99.9189 54.7607C101.699 54.7575 103.041 55.4868 103.401 57.4765H104.936C104.923 57.4219 104.911 57.3673 104.898 57.3127C104.623 56.1094 104.362 54.9665 103.342 54.1947C101.164 52.5483 96.36 52.9379 95.8644 56.3399C95.8014 56.7735 95.7888 57.1683 95.8371 57.603C96.0996 59.9398 98.1975 60.4128 100.048 60.8307C100.37 60.9032 100.685 60.9746 100.982 61.0533C101.967 61.3153 103.409 61.6996 103.618 62.9717C103.922 64.826 102.139 65.7505 100.686 65.7505C98.7603 65.7505 97.4263 64.7178 97.0273 62.6556ZM107.946 57.666C108.031 57.666 108.15 57.6765 108.284 57.6891C108.67 57.7238 109.18 57.7705 109.377 57.6009C109.509 57.4886 109.574 57.172 109.634 56.8859C109.668 56.7205 109.701 56.5656 109.742 56.4659C110.004 55.8359 110.492 55.3765 111.074 55.0962C112.179 54.5628 114.003 54.525 115.028 55.2799C115.81 55.8564 116.445 57.5789 115.703 58.4661C115.303 58.9449 114.517 59.0263 113.87 59.094C113.714 59.1098 113.567 59.1255 113.435 59.145C113.196 59.1812 112.943 59.2143 112.68 59.2484C110.701 59.5056 108.206 59.8296 107.534 62.0871C106.711 64.8543 108.597 67.0116 111.132 67.1974C112.994 67.3339 114.733 66.5076 116.031 65.1189C116.041 66.4341 116.666 67.0158 117.861 67.0137H117.888C118.187 67.0131 118.735 67.0126 118.921 66.7286C119.047 66.537 119.02 66.1527 118.997 65.8429C118.99 65.7363 118.982 65.6392 118.982 65.561C118.872 65.5704 118.752 65.604 118.629 65.6376C118.406 65.6996 118.175 65.7636 117.979 65.6917C117.366 65.4675 117.409 64.406 117.438 63.7004C117.443 63.5686 117.448 63.4494 117.448 63.3502V57.8556C117.448 56.6554 117.425 55.4154 116.56 54.5139C115.673 53.5889 114.335 53.308 113.14 53.308C110.609 53.308 107.947 54.5544 107.946 57.666ZM122.583 55.3923V53.6871H121.107V66.8241H122.583V60.6979C122.583 60.606 122.582 60.5136 122.582 60.4202C122.578 59.2011 122.575 57.8619 123.14 56.7819C124.179 54.7932 127.444 53.7275 128.872 55.8973C129.469 56.8045 129.451 57.9595 129.434 59.0405C129.431 59.2164 129.429 59.3901 129.429 59.5608V66.8241H130.904V59.7503C130.904 59.471 130.913 59.1822 130.922 58.8893V58.8888C130.952 57.9012 130.984 56.8628 130.686 55.9608C129.908 53.6094 127.06 52.7767 125.002 53.5516C124.055 53.9091 123.281 54.6447 122.583 55.3923ZM140.82 57.666H142.354C142.451 55.2967 144.709 54.4971 146.604 54.788C147.889 54.9849 149.045 56.027 148.888 57.5395C148.752 58.8447 147.665 58.9775 146.648 59.1014C146.553 59.1129 146.46 59.124 146.367 59.1366C146.161 59.1639 145.946 59.1896 145.725 59.2158H145.725C143.907 59.4321 141.696 59.6952 140.697 61.4555C139.385 63.7671 140.814 66.4892 143.121 67.0614C145.25 67.5901 147.398 66.7312 148.905 65.1189C148.94 65.6014 148.993 66.1768 149.292 66.5653C149.84 67.2762 150.982 67.02 151.734 66.8514C151.754 66.8467 151.774 66.8425 151.794 66.8383C151.815 66.8336 151.836 66.8289 151.856 66.8241V65.561C151.744 65.5715 151.627 65.6046 151.508 65.6382C151.306 65.6954 151.101 65.7531 150.912 65.7038C150.262 65.5321 150.324 64.4202 150.365 63.6862C150.373 63.5324 150.38 63.3959 150.38 63.2872V57.9816C150.38 56.7483 150.314 55.429 149.436 54.5108C148.566 53.6015 147.248 53.308 146.072 53.308C143.507 53.308 140.879 54.5244 140.82 57.666ZM155.634 56.0238H155.574V53.6871H154.099V66.8241H155.574V64.4244V62.5926C155.574 62.3685 155.572 62.1348 155.569 61.8939V61.8928C155.543 59.3565 155.508 56.0354 158.23 55.2127C158.695 55.072 159.165 55.0132 159.647 55.0132V53.308C157.983 53.308 155.974 53.9811 155.634 56.0238ZM161.83 57.666H163.365C163.62 55.5545 165.136 54.7607 166.965 54.7607C168.615 54.7607 170.19 55.8002 169.89 57.7926C169.729 58.8625 168.631 58.9927 167.754 59.0967C167.644 59.1098 167.538 59.1224 167.437 59.1366C167.201 59.1691 166.954 59.199 166.7 59.2295C164.888 59.4474 162.734 59.7067 161.739 61.4555C160.478 63.6726 161.768 66.4167 164.014 67.02C166.191 67.6053 168.411 66.7785 169.975 65.1189C169.98 67.0788 171.413 67.1811 172.867 66.8241V65.561C172.775 65.5741 172.676 65.6019 172.573 65.6303C172.353 65.6912 172.12 65.7552 171.923 65.6886C171.291 65.4749 171.344 64.3913 171.378 63.6678V63.6673V63.6657C171.385 63.5224 171.391 63.3927 171.391 63.2872V58.1081C171.391 58.0708 171.391 58.0335 171.391 57.9963V57.9957C171.392 56.835 171.393 55.6464 170.655 54.6982C170.184 54.0924 169.484 53.7616 168.795 53.5427C166.957 52.9594 164.3 53.2314 162.91 54.7712C162.194 55.5639 162.029 56.5158 161.852 57.5416L161.851 57.5458L161.843 57.5925C161.839 57.6172 161.835 57.6414 161.83 57.666ZM199.072 53.3353C198.048 53.4844 197.041 53.7915 196.239 54.5271C193.566 56.9751 193.311 62.5302 195.658 65.3085C196.962 66.8499 198.969 67.3922 200.842 67.1218C205.944 66.3863 207.015 58.2504 203.717 54.788C202.531 53.5422 200.693 53.098 199.072 53.3353ZM235.545 62.7186C235.445 62.7186 235.306 62.706 235.152 62.6919C234.72 62.6525 234.158 62.6016 233.926 62.7837C233.777 62.9019 233.681 63.2027 233.591 63.482C233.538 63.6505 233.487 63.8112 233.428 63.9188C233.09 64.5388 232.495 65.0806 231.886 65.3778C228.728 66.9202 226.104 63.9072 226.102 60.6344H235.605C235.605 58.3449 235.21 55.8569 233.421 54.3512C231.547 52.7741 228.392 52.9662 226.633 54.6452C225.421 55.8033 224.732 57.5295 224.578 59.2452C224.379 61.4639 224.687 64.2191 226.339 65.7951C228.057 67.4337 231.218 67.7497 233.185 66.4309C234.367 65.6382 235.233 64.1634 235.545 62.7186ZM239.913 56.0868H239.854V53.6871H238.378V66.8241H239.854V64.4244C239.854 63.997 239.839 63.5277 239.823 63.0331V63.0326V63.0321C239.726 60.0606 239.601 56.1876 242.569 55.2048C243.01 55.0584 243.467 55.0132 243.926 55.0132V53.308C242.237 53.308 240.255 54.0372 239.913 56.0868ZM82.9803 60.3819V53.6871H84.4561V60.9504C84.4561 61.0953 84.4546 61.2418 84.453 61.3899C84.4414 62.5275 84.4294 63.7293 85.0909 64.6769C86.5267 66.7328 89.6027 65.698 90.6275 63.7923C91.3047 62.5333 91.3037 61.0875 91.3021 59.6794C91.3021 59.6185 91.3021 59.5581 91.3021 59.4978V53.6871H92.7774V66.8241H91.3021V65.1189C91.2612 65.1625 91.2202 65.2066 91.1793 65.2507C90.6212 65.8503 90.0253 66.4908 89.2956 66.832C87.1877 67.818 84.1522 67.0677 83.3169 64.6134C82.9373 63.4993 82.9551 62.2997 82.973 61.1211C82.9767 60.8733 82.9803 60.6265 82.9803 60.3819ZM207.412 56.2254C207.14 55.3875 206.86 54.5297 206.744 53.6871L208.178 53.7522L208.481 54.5712L209.071 56.6554L210.597 62.0241L211.406 64.6769L212.149 61.582L213.379 56.7184L214.122 53.6871H215.833L217.744 61.582L218.43 64.5504H218.489C218.867 63.3066 219.223 62.0545 219.579 60.8024C219.973 59.4164 220.367 58.0304 220.791 56.6554C220.932 56.196 221.065 55.7319 221.197 55.2684L221.198 55.2673L221.199 55.2636C221.259 55.0536 221.318 54.8436 221.379 54.6342C221.399 54.5659 221.416 54.4872 221.434 54.4042C221.482 54.1811 221.536 53.9301 221.666 53.7879C221.856 53.5821 222.419 53.6309 222.827 53.6661C222.956 53.6771 223.07 53.6871 223.152 53.6871C223.046 54.4541 222.778 55.2253 222.516 55.9818C222.394 56.3367 222.272 56.688 222.168 57.0345L222.048 57.4366L221.938 57.8057C221.406 59.5933 220.873 61.3815 220.318 63.1607C220.189 63.577 220.064 63.9939 219.939 64.4112V64.4123C219.811 64.8375 219.684 65.2633 219.551 65.6875C219.526 65.7705 219.502 65.8718 219.477 65.9789V65.9794V65.9799C219.414 66.2498 219.342 66.5595 219.201 66.7233C219.015 66.9396 218.387 66.885 217.945 66.8467C217.806 66.8346 217.686 66.8241 217.603 66.8241L215.693 58.9292L215.007 55.9608H214.889C214.846 56.5247 214.685 57.0933 214.527 57.6524C214.453 57.9123 214.38 58.1695 214.32 58.4241C213.911 60.1524 213.497 61.887 213.042 63.6033C212.961 63.9067 212.901 64.2637 212.838 64.6338C212.712 65.3667 212.578 66.1521 212.266 66.6777C212.107 66.9465 210.805 66.9213 210.546 66.7863C210.383 66.7008 210.322 66.4194 210.272 66.1926C210.257 66.1212 210.242 66.0555 210.226 66.003C209.978 65.1888 209.747 64.3629 209.526 63.5397C209.05 61.7668 208.536 60.0012 208.022 58.2383C207.93 57.9212 207.837 57.6041 207.746 57.287C207.645 56.9389 207.529 56.5845 207.413 56.2265V56.226L207.412 56.2254ZM199.131 54.7885C193.885 55.6653 194.726 66.5979 200.429 65.7232C203.36 65.2743 204.151 61.9532 203.915 59.2452C203.822 58.169 203.549 56.9982 202.888 56.1504C201.975 54.9765 200.515 54.5575 199.131 54.7885ZM226.103 59.3082H234.07C234.04 59.1339 234.012 58.9623 233.986 58.7927L233.985 58.7916C233.812 57.7065 233.655 56.7247 232.879 55.8369C231.662 54.4441 229.146 54.3412 227.814 55.5933C226.763 56.5814 226.353 57.8844 226.103 59.3082ZM115.263 60.1918C115.497 60.1272 115.732 60.0621 115.972 60.0028C115.972 60.2506 115.98 60.5058 115.989 60.7646C116.019 61.6629 116.05 62.6042 115.735 63.4137C114.884 65.6004 111.163 66.6929 109.49 64.9735C108.081 63.5245 109.369 61.4135 110.896 60.9447C111.513 60.7551 112.151 60.6995 112.788 60.6438C113.083 60.6181 113.378 60.5924 113.67 60.5535C114.224 60.48 114.74 60.3367 115.263 60.1918ZM148.156 60.2123C148.404 60.1309 148.652 60.0495 148.905 60.0028C148.905 60.228 148.911 60.4601 148.918 60.6948C148.941 61.5699 148.966 62.4892 148.673 63.2872C147.835 65.5683 143.982 66.8084 142.301 64.8654C141.544 63.9897 141.703 62.3816 142.536 61.624C143.185 61.0344 144.067 60.8213 144.892 60.7158C145.21 60.6748 145.529 60.6459 145.849 60.6165C146.377 60.5682 146.905 60.5194 147.429 60.4186C147.677 60.3708 147.917 60.2916 148.156 60.2123ZM169.212 60.1908C169.444 60.1262 169.678 60.0616 169.916 60.0028C169.916 60.2459 169.925 60.4984 169.933 60.7551C169.963 61.635 169.995 62.5659 169.687 63.3502C168.826 65.54 165.151 66.7438 163.429 64.9814C162.068 63.587 163.209 61.4623 164.722 60.9783C165.379 60.7677 166.053 60.7068 166.728 60.6459C167.023 60.6197 167.319 60.5929 167.614 60.5535C168.166 60.48 168.686 60.3362 169.212 60.1908Z" fill="white"/>
</svg>
